<svg width="66" height="58" viewBox="0 0 66 58" fill="none" xmlns="http://www.w3.org/2000/svg">
<path d="M18.6189 0.276855H40.4366V3.27933H58.6181V9.28427H54.9818V22.1949C53.9515 21.9447 52.7552 21.7315 51.3928 21.5554C50.0304 21.3792 48.8025 21.2921 47.7092 21.2941C46.6159 21.2962 45.3893 21.3712 44.0293 21.5193C42.6693 21.6675 41.4718 21.8676 40.4366 22.1198V15.2892H33.1641V25.0472C31.8308 25.8479 30.4975 26.8357 29.1641 28.0107C27.8308 29.1856 26.74 30.3496 25.8915 31.5025V15.2892H18.6189V42.3114H22.2552C22.2552 44.263 22.6794 46.3528 23.5279 48.5806C24.3764 50.8084 25.4673 52.722 26.8006 54.3213H11.3464C9.3464 54.3213 7.63492 53.7338 6.21192 52.5589C4.78892 51.3839 4.07621 49.9697 4.07378 48.3164V9.28427H0.4375V3.27933H18.6189V0.276855ZM47.7092 27.2991C52.7394 27.2991 57.0278 28.7633 60.5744 31.6917C64.121 34.6201 65.8931 38.16 65.8906 42.3114C65.8882 46.4629 64.1149 50.0038 60.5707 52.9342C57.0266 55.8646 52.7394 57.3278 47.7092 57.3238C42.679 57.3198 38.3918 55.8556 34.8477 52.9312C31.3035 50.0068 29.5302 46.4669 29.5278 42.3114C29.5254 38.156 31.2987 34.6161 34.8477 31.6917C38.3967 28.7673 42.6839 27.3031 47.7092 27.2991ZM45.8911 33.304V42.9119L53.7091 49.3672L56.2545 47.2655L49.5273 41.7109V33.304H45.8911Z" fill="#FBBC04"/>
</svg>
