<svg width="65" height="57" viewBox="0 0 65 57" fill="none" xmlns="http://www.w3.org/2000/svg">
<path d="M27.3194 54.8178H24.435C14.0256 54.8178 8.81772 54.8178 5.58402 52.1054C2.35031 49.393 2.35352 45.0267 2.35352 36.2941V23.0629C2.35352 14.3302 2.35352 9.96394 5.59043 7.25418C8.81772 4.53649 14.0256 4.53649 24.435 4.53649H33.899C44.3116 4.53649 50.3944 4.68468 53.6281 7.39443C56.865 10.1095 56.833 14.3276 56.833 23.0602V26.2013M45.4429 1.99609V7.28858M29.4186 1.99609V7.28858M13.3943 1.99609V7.28858M16.7754 36.3973H29.5948M16.7754 23.1661H42.4143" stroke="#FBBC04" stroke-width="3.25" stroke-linecap="round" stroke-linejoin="round"/>
<path opacity="0.93" d="M60.8749 36.077C57.9713 33.3911 56.231 33.5525 54.2985 34.0315C52.9429 34.1903 48.3022 38.6624 46.3665 40.0914C43.1905 42.6794 39.9984 45.3468 39.7901 45.6961C39.1876 46.5033 38.6299 47.9322 38.3575 49.5306C37.8544 51.9281 37.1301 54.6246 38.0467 54.8574C38.9633 55.0903 41.5303 54.6458 44.4307 54.2938C46.3665 54.0027 47.7189 53.6852 48.6868 53.2062C50.0425 52.534 52.5551 50.1709 56.8912 46.6541C59.6058 44.291 62.2273 42.6583 63.0029 41.0626C63.7753 38.6651 62.6183 37.3869 60.8749 36.077Z" stroke="#FBBC04" stroke-width="3.25" stroke-linecap="round" stroke-linejoin="round"/>
</svg>
