<svg width="36" height="32" viewBox="0 0 36 32" fill="none" xmlns="http://www.w3.org/2000/svg">
<path d="M27.1444 0.795654H8.66863C4.16693 0.795654 0.517578 4.03023 0.517578 8.02029V24.3961C0.517578 28.3862 4.16693 31.6208 8.66863 31.6208H27.1444C31.6461 31.6208 35.2954 28.3862 35.2954 24.3961V8.02029C35.2954 4.03023 31.6461 0.795654 27.1444 0.795654Z" fill="#F4F2ED"/>
<path d="M6.17375 25.2438H10.4962V15.9393L4.32129 11.8345V23.6018C4.32129 24.5103 5.15188 25.2438 6.17375 25.2438Z" fill="#4285F4"/>
<path d="M25.3164 25.2436H29.6391C30.664 25.2436 31.4915 24.5074 31.4915 23.6017V11.8342L25.3164 15.9391" fill="#34A853"/>
<path d="M25.3164 8.82395V15.9391L31.4915 11.8343V9.64479C31.4915 7.61431 28.8764 6.45668 27.0455 7.67451" fill="#FBBC04"/>
<path d="M10.4961 15.9393V8.82422L17.9061 13.7499L25.3161 8.82397V15.9392L17.9061 20.8652" fill="#EA4335"/>
<path d="M4.32129 9.64504V11.8343L10.4962 15.9393V8.8242L8.76727 7.67476C6.93329 6.45692 4.32129 7.61455 4.32129 9.64504Z" fill="#C5221F"/>
</svg>
