<svg width="36" height="34" viewBox="0 0 36 34" fill="none" xmlns="http://www.w3.org/2000/svg">
<path d="M27.3572 0.0285645H8.88152C4.37982 0.0285645 0.730469 3.52191 0.730469 7.83117V25.5171C0.730469 29.8263 4.37982 33.3197 8.88152 33.3197H27.3572C31.8589 33.3197 35.5083 29.8263 35.5083 25.5171V7.83117C35.5083 3.52191 31.8589 0.0285645 27.3572 0.0285645Z" fill="url(#paint0_radial_56_2006)"/>
<path d="M27.3572 0.0285645H8.88152C4.37982 0.0285645 0.730469 3.52191 0.730469 7.83117V25.5171C0.730469 29.8263 4.37982 33.3197 8.88152 33.3197H27.3572C31.8589 33.3197 35.5083 29.8263 35.5083 25.5171V7.83117C35.5083 3.52191 31.8589 0.0285645 27.3572 0.0285645Z" fill="url(#paint1_radial_56_2006)"/>
<path d="M18.1206 3.72754C14.4285 3.72754 13.965 3.74295 12.515 3.80574C11.0677 3.86891 10.0797 4.08706 9.21536 4.40723C8.32108 4.73788 7.56262 5.18026 6.80701 5.90008C6.05072 6.61977 5.58618 7.34205 5.23788 8.19328C4.90072 9.01667 4.67138 9.95788 4.60626 11.3355C4.54141 12.7165 4.52441 13.158 4.52441 16.6741C4.52441 20.1902 4.54073 20.6301 4.60653 22.011C4.67314 23.3893 4.90222 24.3301 5.23815 25.1532C5.58564 26.0048 6.05018 26.7271 6.80606 27.4467C7.56153 28.1669 8.31999 28.6103 9.21359 28.941C10.0786 29.2611 11.0667 29.4793 12.5138 29.5424C13.9639 29.6052 14.427 29.6206 18.119 29.6206C21.8115 29.6206 22.2735 29.6052 23.7235 29.5424C25.1708 29.4793 26.1599 29.2611 27.0249 28.941C27.9188 28.6103 28.6761 28.1669 29.4315 27.4467C30.1878 26.7271 30.6522 26.0048 31.0006 25.1536C31.3348 24.3301 31.5643 23.389 31.6322 22.0113C31.6974 20.6304 31.7144 20.1902 31.7144 16.6741C31.7144 13.158 31.6974 12.7168 31.6322 11.3358C31.5643 9.95749 31.3348 9.0168 31.0006 8.19367C30.6522 7.34205 30.1878 6.61977 29.4315 5.90008C28.6753 5.18 27.919 4.73762 27.0241 4.40736C26.1574 4.08706 25.1689 3.86878 23.7216 3.80574C22.2714 3.74295 21.8097 3.72754 18.1164 3.72754H18.1206ZM16.901 6.06061C17.263 6.0601 17.6669 6.06061 18.1206 6.06061C21.7506 6.06061 22.1807 6.07304 23.6142 6.13506C24.9397 6.1928 25.6592 6.40369 26.1384 6.58093C26.7729 6.81552 27.2252 7.09607 27.7007 7.54932C28.1765 8.00245 28.471 8.43395 28.718 9.03816C28.9041 9.49388 29.1259 10.179 29.1862 11.4413C29.2514 12.8061 29.2655 13.216 29.2655 16.6711C29.2655 20.1263 29.2514 20.5363 29.1862 21.9009C29.1256 23.1632 28.9041 23.8484 28.718 24.3042C28.4717 24.9084 28.1765 25.3386 27.7007 25.7915C27.2249 26.2446 26.7731 26.525 26.1384 26.7597C25.6597 26.9378 24.9397 27.1481 23.6142 27.2059C22.181 27.2679 21.7506 27.2814 18.1206 27.2814C14.4905 27.2814 14.0602 27.2679 12.6272 27.2059C11.3016 27.1476 10.5822 26.9367 10.1026 26.7595C9.46822 26.5248 9.01497 26.2443 8.53914 25.7912C8.06332 25.3381 7.76885 24.9076 7.52183 24.3032C7.33572 23.8473 7.11398 23.1622 7.05362 21.8999C6.9885 20.5351 6.97545 20.1252 6.97545 16.6679C6.97545 13.2107 6.9885 12.8029 7.05362 11.438C7.11426 10.1758 7.33572 9.49064 7.52183 9.03428C7.76831 8.43007 8.06332 7.99856 8.53928 7.54544C9.0151 7.09231 9.46822 6.81177 10.1027 6.57666C10.5819 6.39864 11.3016 6.18827 12.6272 6.13027C13.8813 6.07628 14.3673 6.0601 16.901 6.05738V6.06061ZM25.3776 8.21024C24.4769 8.21024 23.7462 8.90546 23.7462 9.76329C23.7462 10.621 24.4769 11.3169 25.3776 11.3169C26.2783 11.3169 27.009 10.621 27.009 9.76329C27.009 8.90559 26.2783 8.20972 25.3776 8.20972V8.21024ZM18.1206 10.0255C14.2651 10.0255 11.139 13.0024 11.139 16.6741C11.139 20.3458 14.2651 23.3213 18.1206 23.3213C21.9763 23.3213 25.1012 20.3458 25.1012 16.6741C25.1012 13.0025 21.976 10.0255 18.1203 10.0255H18.1206ZM18.1206 12.3585C20.6233 12.3585 22.6524 14.2905 22.6524 16.6741C22.6524 19.0574 20.6233 20.9897 18.1206 20.9897C15.6178 20.9897 13.589 19.0574 13.589 16.6741C13.589 14.2905 15.6178 12.3585 18.1206 12.3585Z" fill="#E9DBF7"/>
<defs>
<radialGradient id="paint0_radial_56_2006" cx="0" cy="0" r="1" gradientUnits="userSpaceOnUse" gradientTransform="translate(9.96832 35.8838) rotate(-90) scale(32.994 32.0574)">
<stop stop-color="#FFDD55"/>
<stop offset="0.1" stop-color="#FFDD55"/>
<stop offset="0.5" stop-color="#FF543E"/>
<stop offset="1" stop-color="#C837AB"/>
</radialGradient>
<radialGradient id="paint1_radial_56_2006" cx="0" cy="0" r="1" gradientUnits="userSpaceOnUse" gradientTransform="translate(-5.09495 2.4267) rotate(78.1894) scale(14.7744 63.3972)">
<stop stop-color="#3771C8"/>
<stop offset="0.128" stop-color="#3771C8"/>
<stop offset="1" stop-color="#6600FF" stop-opacity="0"/>
</radialGradient>
</defs>
</svg>
