<svg width="63" height="48" viewBox="0 0 63 48" fill="none" xmlns="http://www.w3.org/2000/svg">
<path d="M24.7717 19.7101C23.1663 19.3239 21.6332 18.9947 20.1723 18.7226C19.5703 17.1491 19.2664 15.5083 19.2712 13.8582C19.2712 6.65884 24.8754 0.822298 31.7885 0.822298C38.7016 0.822298 44.3005 6.65336 44.3005 13.8538C44.3045 15.4265 44.0287 16.9912 43.4818 18.4976C41.6638 18.8122 39.7271 19.2164 37.6717 19.7101C34.7481 20.4146 32.3839 21.1125 31.2184 21.4713C30.0596 21.1125 27.6954 20.4146 24.7717 19.7101ZM7.76794 29.0306C6.31806 29.0306 4.90074 29.3856 3.69523 30.0508C2.48972 30.7159 1.55016 31.6613 0.995377 32.7673C0.440594 33.8734 0.295504 35.0904 0.578458 36.2646C0.861412 37.4387 1.5597 38.5172 2.58501 39.3636C3.61032 40.2101 4.9166 40.7865 6.33865 41.0199C7.76071 41.2533 9.23465 41.1333 10.5741 40.675C11.9135 40.2167 13.0583 39.4407 13.8636 38.4452C14.6689 37.4497 15.0986 36.2794 15.0984 35.0822C15.098 33.4771 14.3255 31.9379 12.9509 30.803C11.5762 29.6682 9.71185 29.0306 7.76794 29.0306ZM55.5818 29.0306C54.1319 29.0306 52.7146 29.3856 51.5091 30.0508C50.3036 30.7159 49.3641 31.6613 48.8093 32.7673C48.2545 33.8734 48.1094 35.0904 48.3923 36.2646C48.6753 37.4387 49.3736 38.5172 50.3989 39.3636C51.4242 40.2101 52.7305 40.7865 54.1525 41.0199C55.5746 41.2533 57.0485 41.1333 58.388 40.675C59.7274 40.2167 60.8722 39.4407 61.6775 38.4452C62.4828 37.4497 62.9125 36.2794 62.9122 35.0822C62.9119 33.4773 62.1396 31.9383 60.7652 30.8034C59.3908 29.6686 57.5255 29.0309 55.5818 29.0306ZM46.1264 35.0822C46.1285 33.5725 46.6599 32.0956 47.6565 30.8299C48.6531 29.5642 50.0723 28.5639 51.7425 27.9498V19.4402C43.1722 19.4402 31.2184 23.351 31.2184 23.351C31.2184 23.351 19.2646 19.4402 10.6943 19.4402V27.6612C12.5913 28.1716 14.2441 29.1644 15.4162 30.4976C16.5882 31.8308 17.2194 33.4359 17.2194 35.0833C17.2194 36.7307 16.5882 38.3359 15.4162 39.6691C14.2441 41.0023 12.5913 41.9951 10.6943 42.5055V43.2736C19.2646 43.2736 31.2184 47.8362 31.2184 47.8362C31.2184 47.8362 43.1775 43.2769 51.7425 43.2769V42.2147C50.0723 41.6006 48.6531 40.6002 47.6565 39.3345C46.6599 38.0688 46.1285 36.5919 46.1264 35.0822Z" fill="#FBBC04"/>
</svg>
