 <svg width="68" height="69" viewBox="0 0 68 69" fill="none" xmlns="http://www.w3.org/2000/svg">
    <path d="M8.89905 4.35019C7.78436 4.35019 6.71532 4.80028 5.92712 5.60145C5.13891 6.40262 4.69611 7.48924 4.69611 8.62226V59.8871C4.69611 61.0201 5.13891 62.1067 5.92712 62.9079C6.71532 63.7091 7.78436 64.1591 8.89905 64.1591H59.3343C60.449 64.1591 61.5181 63.7091 62.3063 62.9079C63.0945 62.1067 63.5373 61.0201 63.5373 59.8871V8.62226C63.5373 7.48924 63.0945 6.40262 62.3063 5.60145C61.5181 4.80028 60.449 4.35019 59.3343 4.35019H40.4211C39.3064 4.35019 38.2374 4.80028 37.4492 5.60145C36.661 6.40262 36.2182 7.48924 36.2182 8.62226V39.7785L47.3391 28.4703C47.7337 28.0692 48.2689 27.8439 48.827 27.8439C49.385 27.8439 49.9202 28.0692 50.3148 28.4703C50.7094 28.8714 50.9311 29.4154 50.9311 29.9826C50.9311 30.5498 50.7094 31.0938 50.3148 31.4949L35.6045 46.4472C35.4093 46.6461 35.1774 46.8039 34.9221 46.9116C34.6668 47.0193 34.3931 47.0747 34.1167 47.0747C33.8403 47.0747 33.5666 47.0193 33.3113 46.9116C33.056 46.8039 32.8241 46.6461 32.6288 46.4472L17.9186 31.4949C17.7232 31.2963 17.5682 31.0605 17.4624 30.8011C17.3567 30.5416 17.3023 30.2635 17.3023 29.9826C17.3023 29.7017 17.3567 29.4236 17.4624 29.1641C17.5682 28.9047 17.7232 28.6689 17.9186 28.4703C18.1139 28.2717 18.3459 28.1142 18.6012 28.0067C18.8565 27.8992 19.1301 27.8439 19.4064 27.8439C19.6827 27.8439 19.9563 27.8992 20.2116 28.0067C20.4669 28.1142 20.6989 28.2717 20.8942 28.4703L32.0152 39.7785V8.62226C32.0152 6.35622 32.9008 4.18298 34.4772 2.58064C36.0537 0.978308 38.1917 0.078125 40.4211 0.078125L59.3343 0.078125C61.5637 0.078125 63.7018 0.978308 65.2782 2.58064C66.8546 4.18298 67.7402 6.35622 67.7402 8.62226V59.8871C67.7402 62.1531 66.8546 64.3264 65.2782 65.9287C63.7018 67.531 61.5637 68.4312 59.3343 68.4312H8.89905C6.66967 68.4312 4.5316 67.531 2.95519 65.9287C1.37878 64.3264 0.493164 62.1531 0.493164 59.8871V8.62226C0.493164 6.35622 1.37878 4.18298 2.95519 2.58064C4.5316 0.978308 6.66967 0.078125 8.89905 0.078125L19.4064 0.078125C19.9637 0.078125 20.4983 0.303171 20.8924 0.703755C21.2865 1.10434 21.5079 1.64765 21.5079 2.21416C21.5079 2.78067 21.2865 3.32398 20.8924 3.72456C20.4983 4.12515 19.9637 4.35019 19.4064 4.35019H8.89905Z" fill="#FBBC04"/>
</svg>