<svg width="35" height="31" viewBox="0 0 35 31" fill="none" xmlns="http://www.w3.org/2000/svg">
<ellipse cx="17.397" cy="15.1329" rx="17.0728" ry="15.1043" fill="#45ACF7"/>
<path d="M2.28004 12.4572C9.9197 8.9774 15.0128 6.68323 17.5594 5.57468C24.8387 2.40956 26.3495 1.85985 27.3362 1.84123C27.5531 1.83759 28.0363 1.89367 28.3515 2.16018C28.6135 2.38494 28.6872 2.68891 28.7241 2.90233C28.7568 3.11554 28.8019 3.60146 28.765 3.98077C28.372 8.31338 26.6647 18.8272 25.7968 23.68C25.4324 25.7333 24.7077 26.4217 24.0076 26.4889C22.4846 26.6354 21.3301 25.4375 19.8562 24.4275C17.5512 22.8465 16.2492 21.8626 14.0097 20.3201C11.4222 18.5374 13.1008 17.5574 14.5747 15.9562C14.9596 15.5371 21.6658 9.16021 21.7927 8.58182C21.8091 8.50946 21.8255 8.23975 21.6699 8.09761C21.5184 7.95504 21.2932 8.00385 21.1294 8.04238C20.8961 8.09718 17.2155 10.6437 10.0753 15.6814C9.03127 16.4323 8.08553 16.7984 7.23395 16.7791C6.30048 16.7581 4.49906 16.226 3.16028 15.7713C1.52262 15.2134 0.216594 14.9185 0.33123 13.971C0.388548 13.4778 1.03952 12.9731 2.28004 12.4572Z" fill="#E9DBF7"/>
</svg>
