<svg width="32" height="32" viewBox="0 0 32 32" fill="none" xmlns="http://www.w3.org/2000/svg">
<path d="M0.971932 16.424C0.971191 19.0139 1.6707 21.5427 3.0008 23.7717L0.844727 31.3874L8.90093 29.3439C11.1292 30.5174 13.6258 31.1323 16.1628 31.1324H16.1694C24.5446 31.1324 31.3623 24.5393 31.3658 16.4355C31.3674 12.5087 29.7881 8.81613 26.9187 6.03804C24.0498 3.2602 20.2342 1.72958 16.1688 1.72778C7.79263 1.72778 0.975514 8.32053 0.972056 16.424" fill="url(#paint0_linear_0_1)"/>
<path d="M0.345037 15.7179C0.344172 18.401 1.06875 21.0203 2.44628 23.3291L0.212891 31.2178L8.55796 29.1011C10.8573 30.3139 13.4461 30.9533 16.0804 30.9543H16.0872C24.7629 30.9543 31.8254 24.124 31.8291 15.7301C31.8306 11.6622 30.1944 7.83686 27.2225 4.95925C24.2502 2.082 20.2982 0.496302 16.0872 0.494629C7.41002 0.494629 0.348495 7.32395 0.345037 15.7179ZM5.31483 22.9315L5.00324 22.453C3.69339 20.4381 3.00203 18.1098 3.00302 15.7189C3.00574 8.74202 8.87499 3.06578 16.0921 3.06578C19.5872 3.06721 22.8718 4.38528 25.3423 6.77674C27.8127 9.16844 29.1721 12.3477 29.1712 15.7292C29.168 22.706 23.2987 28.383 16.0872 28.383H16.082C13.7339 28.3818 11.431 27.7718 9.42259 26.6189L8.94465 26.3447L3.99251 27.6008L5.31483 22.9315Z" fill="url(#paint1_linear_0_1)"/>
<path d="M11.8652 9.17561C11.5705 8.54203 11.2604 8.52924 10.9802 8.51813C10.7507 8.50857 10.4884 8.50929 10.2263 8.50929C9.96402 8.50929 9.53782 8.60475 9.17757 8.98529C8.81695 9.36618 7.80078 10.2866 7.80078 12.1587C7.80078 14.0308 9.2103 15.8402 9.40679 16.0943C9.60352 16.3479 12.1279 20.3127 16.1258 21.8379C19.4485 23.1055 20.1247 22.8534 20.8458 22.7898C21.567 22.7265 23.173 21.8696 23.5007 20.981C23.8286 20.0926 23.8286 19.3311 23.7303 19.1719C23.632 19.0134 23.3697 18.9181 22.9763 18.7279C22.583 18.5377 20.6491 17.617 20.2886 17.49C19.9279 17.3631 19.6657 17.2998 19.4034 17.6808C19.1411 18.0613 18.3879 18.9181 18.1583 19.1719C17.929 19.4263 17.6994 19.4579 17.3061 19.2676C16.9125 19.0767 15.6458 18.6754 14.1429 17.3792C12.9736 16.3705 12.1842 15.125 11.9547 14.744C11.7253 14.3636 11.9302 14.1573 12.1274 13.9677C12.3041 13.7972 12.5209 13.5234 12.7177 13.3013C12.9138 13.0791 12.9793 12.9205 13.1104 12.6667C13.2417 12.4127 13.176 12.1905 13.0778 12.0002C12.9793 11.8098 12.2149 9.92796 11.8652 9.17561Z" fill="#E9DBF7"/>
<defs>
<linearGradient id="paint0_linear_0_1" x1="1526.9" y1="2967.69" x2="1526.9" y2="1.72778" gradientUnits="userSpaceOnUse">
<stop stop-color="#1FAF38"/>
<stop offset="1" stop-color="#60D669"/>
</linearGradient>
<linearGradient id="paint1_linear_0_1" x1="1581.02" y1="3072.82" x2="1581.02" y2="0.494629" gradientUnits="userSpaceOnUse">
<stop stop-color="#F9F9F9"/>
<stop offset="1" stop-color="white"/>
</linearGradient>
</defs>
</svg>

